<mxfile host="app.diagrams.net" agent="Mozilla/5.0 (Windows NT 10.0; Win64; x64) AppleWebKit/537.36 (KHTML, like Gecko) Chrome/135.0.0.0 Safari/537.36 Edg/135.0.0.0" version="26.2.12">
  <diagram name="第 1 页" id="tJ9OrOXSROxzPLIEZxjT">
    <mxGraphModel dx="1420" dy="965" grid="1" gridSize="10" guides="1" tooltips="1" connect="1" arrows="1" fold="1" page="1" pageScale="1" pageWidth="827" pageHeight="583" math="0" shadow="0">
      <root>
        <mxCell id="0" />
        <mxCell id="1" parent="0" />
        <mxCell id="0T5hQr4ZliG2wnaZxZNi-21" value="" style="rounded=1;arcSize=5;whiteSpace=wrap;html=1;fillColor=#d5e8d4;strokeColor=light-dark(#548235, #ededed);" vertex="1" parent="1">
          <mxGeometry x="30" y="40" width="760" height="200" as="geometry" />
        </mxCell>
        <mxCell id="0T5hQr4ZliG2wnaZxZNi-22" value="&lt;font style=&quot;font-size: 15px;&quot; face=&quot;Times New Roman&quot;&gt;任务分解阶段&lt;/font&gt;" style="text;html=1;align=center;verticalAlign=middle;resizable=0;points=[];autosize=1;strokeColor=none;fillColor=none;fontColor=light-dark(#548235, #69c195);fontStyle=1" vertex="1" parent="1">
          <mxGeometry x="40" y="50" width="110" height="30" as="geometry" />
        </mxCell>
        <mxCell id="0T5hQr4ZliG2wnaZxZNi-23" value="" style="group" vertex="1" connectable="0" parent="1">
          <mxGeometry x="417" y="84" width="152.24" height="120.37013422818792" as="geometry" />
        </mxCell>
        <mxCell id="0T5hQr4ZliG2wnaZxZNi-24" value="" style="group" vertex="1" connectable="0" parent="0T5hQr4ZliG2wnaZxZNi-23">
          <mxGeometry width="152.24" height="120.37013422818792" as="geometry" />
        </mxCell>
        <mxCell id="0T5hQr4ZliG2wnaZxZNi-25" value="" style="group;fontStyle=0;strokeWidth=2;" vertex="1" connectable="0" parent="0T5hQr4ZliG2wnaZxZNi-24">
          <mxGeometry width="152.24" height="120.37013422818792" as="geometry" />
        </mxCell>
        <mxCell id="0T5hQr4ZliG2wnaZxZNi-26" value="&lt;b&gt;&lt;font face=&quot;Times New Roman&quot;&gt;大语言模型&lt;/font&gt;&lt;/b&gt;&lt;div&gt;&lt;b&gt;&lt;font face=&quot;Times New Roman&quot;&gt;GPT-4o-mini&lt;/font&gt;&lt;/b&gt;&lt;/div&gt;" style="text;html=1;align=center;verticalAlign=middle;resizable=0;points=[];autosize=1;strokeColor=none;fillColor=none;" vertex="1" parent="0T5hQr4ZliG2wnaZxZNi-25">
          <mxGeometry x="-1.6295410212277694" y="96.00013422818792" width="90" height="40" as="geometry" />
        </mxCell>
        <mxCell id="0T5hQr4ZliG2wnaZxZNi-27" style="edgeStyle=orthogonalEdgeStyle;rounded=1;orthogonalLoop=1;jettySize=auto;html=1;fillColor=#1ba1e2;strokeColor=light-dark(#548235, #ededed);curved=0;textShadow=1;" edge="1" parent="0T5hQr4ZliG2wnaZxZNi-25">
          <mxGeometry relative="1" as="geometry">
            <mxPoint x="81" y="47.99999999999994" as="sourcePoint" />
            <mxPoint x="131" y="47.99999999999994" as="targetPoint" />
          </mxGeometry>
        </mxCell>
        <mxCell id="0T5hQr4ZliG2wnaZxZNi-28" value="" style="shape=image;html=1;verticalAlign=top;verticalLabelPosition=bottom;labelBackgroundColor=#ffffff;imageAspect=0;aspect=fixed;image=https://cdn0.iconfinder.com/data/icons/phosphor-light-vol-1/256/brain-light-128.png;imageBackground=none;imageBorder=none;" vertex="1" parent="0T5hQr4ZliG2wnaZxZNi-23">
          <mxGeometry x="10.689999999999998" y="15" width="65.37" height="65.37" as="geometry" />
        </mxCell>
        <mxCell id="0T5hQr4ZliG2wnaZxZNi-29" value="&lt;font style=&quot;font-size: 54px; color: light-dark(rgb(84, 130, 53), rgb(237, 237, 237));&quot; face=&quot;Times New Roman&quot;&gt;N&lt;/font&gt;" style="text;html=1;align=center;verticalAlign=middle;resizable=0;points=[];autosize=1;strokeColor=none;fillColor=none;" vertex="1" parent="1">
          <mxGeometry x="302" y="96.5" width="57" height="77" as="geometry" />
        </mxCell>
        <mxCell id="0T5hQr4ZliG2wnaZxZNi-30" style="edgeStyle=orthogonalEdgeStyle;rounded=1;orthogonalLoop=1;jettySize=auto;html=1;fillColor=#1ba1e2;strokeColor=light-dark(#548235, #ededed);curved=0;textShadow=1;" edge="1" parent="1">
          <mxGeometry relative="1" as="geometry">
            <mxPoint x="364" y="134.57999999999993" as="sourcePoint" />
            <mxPoint x="414" y="134.57999999999993" as="targetPoint" />
          </mxGeometry>
        </mxCell>
        <mxCell id="0T5hQr4ZliG2wnaZxZNi-31" value="" style="shape=cross;whiteSpace=wrap;html=1;fillColor=light-dark(#548235, #ededed);strokeColor=light-dark(#548235, #ededed);aspect=fixed;" vertex="1" parent="1">
          <mxGeometry x="192.00000000000003" y="125" width="20" height="20" as="geometry" />
        </mxCell>
        <mxCell id="0T5hQr4ZliG2wnaZxZNi-32" value="&lt;b&gt;&lt;font face=&quot;Times New Roman&quot;&gt;任务提示（Prompt）&lt;/font&gt;&lt;/b&gt;" style="text;html=1;align=center;verticalAlign=middle;resizable=0;points=[];autosize=1;strokeColor=none;fillColor=none;" vertex="1" parent="1">
          <mxGeometry x="51" y="187" width="129" height="26" as="geometry" />
        </mxCell>
        <mxCell id="0T5hQr4ZliG2wnaZxZNi-33" value="&lt;div style=&quot;color: rgb(51, 51, 51);&quot;&gt;&lt;span style=&quot;font-family: &amp;quot;Times New Roman&amp;quot;; background-color: transparent; color: light-dark(rgb(51, 51, 51), rgb(193, 193, 193));&quot;&gt;&amp;nbsp; Task:&lt;/span&gt;&lt;/div&gt;&lt;div style=&quot;color: rgb(51, 51, 51);&quot;&gt;&lt;font face=&quot;Times New Roman&quot;&gt;&amp;nbsp; Object List:&lt;/font&gt;&lt;/div&gt;&lt;div style=&quot;color: rgb(51, 51, 51);&quot;&gt;&lt;font face=&quot;Times New Roman&quot;&gt;&amp;nbsp; Step:&lt;/font&gt;&lt;/div&gt;&lt;div style=&quot;color: rgb(51, 51, 51);&quot;&gt;&lt;font face=&quot;Times New Roman&quot;&gt;&amp;nbsp; ...&lt;/font&gt;&lt;/div&gt;" style="strokeWidth=1;html=1;shape=mxgraph.flowchart.multi-document;whiteSpace=wrap;align=left;fillColor=light-dark(#e7e6e6, #ededed);" vertex="1" parent="1">
          <mxGeometry x="55" y="90" width="122" height="95" as="geometry" />
        </mxCell>
        <mxCell id="0T5hQr4ZliG2wnaZxZNi-34" value="&lt;b&gt;&lt;font face=&quot;Times New Roman&quot;&gt;示例提示（Prompt）&lt;/font&gt;&lt;/b&gt;" style="text;html=1;align=center;verticalAlign=middle;resizable=0;points=[];autosize=1;strokeColor=none;fillColor=none;" vertex="1" parent="1">
          <mxGeometry x="236" y="187" width="129" height="26" as="geometry" />
        </mxCell>
        <mxCell id="0T5hQr4ZliG2wnaZxZNi-35" value="" style="html=1;verticalLabelPosition=bottom;align=center;labelBackgroundColor=#ffffff;verticalAlign=top;strokeWidth=3;strokeColor=light-dark(#548235, #ededed);shadow=0;dashed=0;shape=mxgraph.ios7.icons.bookmark;fillColor=none;aspect=fixed;" vertex="1" parent="1">
          <mxGeometry x="235" y="110" width="37.5" height="50" as="geometry" />
        </mxCell>
        <mxCell id="0T5hQr4ZliG2wnaZxZNi-36" value="" style="shape=cross;whiteSpace=wrap;html=1;fillColor=light-dark(#548235, #ededed);strokeColor=light-dark(#548235, #ededed);aspect=fixed;rotation=45;align=center;verticalAlign=middle;fontFamily=Helvetica;fontSize=12;fontColor=default;" vertex="1" parent="1">
          <mxGeometry x="285" y="125" width="20" height="20" as="geometry" />
        </mxCell>
        <mxCell id="0T5hQr4ZliG2wnaZxZNi-37" value="&lt;div style=&quot;line-height: 100%;&quot;&gt;&lt;font face=&quot;Times New Roman&quot; color=&quot;#333333&quot;&gt;&amp;nbsp; &amp;nbsp; Step1:walk to computer&lt;/font&gt;&lt;/div&gt;&lt;div style=&quot;line-height: 100%;&quot;&gt;&lt;font face=&quot;Times New Roman&quot; color=&quot;#333333&quot;&gt;&amp;nbsp; &amp;nbsp; Step2:turn on computer&lt;/font&gt;&lt;/div&gt;&lt;div style=&quot;line-height: 100%;&quot;&gt;&lt;font style=&quot;color: rgb(255, 0, 0);&quot; face=&quot;Times New Roman&quot;&gt;&amp;nbsp; &amp;nbsp; New Step:take a seat&lt;/font&gt;&lt;/div&gt;" style="shape=note;whiteSpace=wrap;html=1;backgroundOutline=1;darkOpacity=0.05;align=left;size=9;fillColor=light-dark(#82b366, #1f2f1e);strokeColor=#000000;" vertex="1" parent="1">
          <mxGeometry x="589" y="102.5" width="155" height="70" as="geometry" />
        </mxCell>
        <mxCell id="0T5hQr4ZliG2wnaZxZNi-38" value="" style="rounded=1;arcSize=5;whiteSpace=wrap;html=1;fillColor=none;strokeColor=light-dark(#548235, #ededed);strokeWidth=2;dashed=1;dashPattern=8 8;" vertex="1" parent="1">
          <mxGeometry x="566.5" y="50" width="200" height="176.19" as="geometry" />
        </mxCell>
        <mxCell id="0T5hQr4ZliG2wnaZxZNi-39" value="&lt;b&gt;分解步骤&lt;/b&gt;" style="text;html=1;align=center;verticalAlign=middle;resizable=0;points=[];autosize=1;strokeColor=none;fillColor=none;" vertex="1" parent="1">
          <mxGeometry x="633.5" y="189" width="66" height="26" as="geometry" />
        </mxCell>
        <mxCell id="0T5hQr4ZliG2wnaZxZNi-40" value="&lt;font face=&quot;Times New Roman&quot;&gt;&lt;span style=&quot;font-size: 15px;&quot;&gt;多采样&lt;/span&gt;&lt;/font&gt;" style="text;html=1;align=center;verticalAlign=middle;resizable=0;points=[];autosize=1;strokeColor=none;fillColor=none;fontColor=light-dark(#548235, #69c195);fontStyle=1" vertex="1" parent="1">
          <mxGeometry x="568" y="56" width="63" height="30" as="geometry" />
        </mxCell>
      </root>
    </mxGraphModel>
  </diagram>
</mxfile>
